<?xml version="1.0" encoding="UTF-8"?>
<svg width="25px" height="30px" viewBox="0 0 25 30" version="1.1" xmlns="http://www.w3.org/2000/svg" xmlns:xlink="http://www.w3.org/1999/xlink">
    <!-- Generator: Sketch 58 (84663) - https://sketch.com -->
    <title>db</title>
    <desc>Created with Sketch.</desc>
    <g id="Page-1" stroke="none" stroke-width="1" fill="none" fill-rule="evenodd">
        <g id="Dashboard---Barang-ver2-Copy" transform="translate(-98.000000, -160.000000)" fill="#9B9B9B" fill-rule="nonzero">
            <g id="main" transform="translate(0.000000, 140.000000)">
                <path d="M122.99969,41.1341409 L122.99969,45.3608286 C122.99969,45.4511133 122.977795,45.5366476 122.937461,45.6103029 C122.327973,48.1241754 117.053515,50 110.4999,50 C103.931239,50 98.6487858,48.1171502 98.0576181,45.5938803 C98.0207429,45.5237924 98,45.4441976 98,45.3610384 L98,45.3610384 L98,41.1341409 C100.066314,42.6345573 104.326533,43.8142161 110.499882,43.8142161 C116.672051,43.8142161 120.932329,42.6345573 122.99969,41.1341409 L122.99969,41.1341409 Z M122.999646,34.432779 L122.999646,39.2774426 C121.577705,40.8099438 116.803286,42.2224385 110.499838,42.2224385 C104.336466,42.2224385 99.6350069,40.8720238 98.0997779,39.3794174 L98.0000295,39.2774426 L98.0000295,34.432779 C98.654565,34.8961089 99.5015641,35.3011994 100.491465,35.6457088 C102.596942,36.408386 105.522837,36.9418008 109.193038,37.0463427 C109.628648,37.0594105 110.065379,37.0665382 110.499838,37.0665382 C110.933146,37.0665382 111.368726,37.0594105 111.803186,37.0463427 C115.46318,36.9429716 118.382083,36.4119442 120.487471,35.6528253 C121.486577,35.3071298 122.341629,34.8996671 122.999646,34.432779 Z M123,27.6745189 L123,32.520399 C121.681607,33.9400405 117.48334,35.2563171 111.857526,35.4416429 C111.798755,35.444019 111.739983,35.4452069 111.682365,35.4463948 C111.519874,35.4511468 111.35623,35.4558987 111.191441,35.4582748 C110.963252,35.4618385 110.732791,35.4642146 110.5,35.4642146 C110.267209,35.4642146 110.03673,35.4618385 109.808559,35.4582748 C109.643767,35.4558987 109.48012,35.4511468 109.317635,35.4463948 C109.260017,35.4452069 109.201245,35.444019 109.142474,35.4416429 C103.657018,35.2609443 99.5291284,34.0051472 98.1042518,32.6266622 L98,32.520399 L98.0003835,27.6745189 C100.433024,29.3982824 105.578564,30.3094624 110.500192,30.3094624 C115.42182,30.3094624 120.56733,29.3982824 123,27.6745189 Z M110.499838,20 C118.057367,20 122.371779,22.1859986 122.932974,24.4027743 C122.958966,24.4502295 122.979922,24.5008949 122.991005,24.5550948 L122.999619,24.6390862 L122.999619,25.8270476 C121.582103,27.3535881 116.842496,28.7625245 110.499811,28.7625245 C104.298075,28.7625245 99.6288754,27.4155117 98.0994011,25.9286286 L98.000003,25.8270476 L98.000003,24.6390862 C98.000003,24.5452372 98.029964,24.4620781 98.0726016,24.3860476 C98.6511134,22.1751718 102.960894,20 110.499838,20 Z" id="db"></path>
            </g>
        </g>
    </g>
</svg>